<svg xmlns="http://www.w3.org/2000/svg" viewBox="0 0 880 460">
  <style>
    text { font-family: 'JetBrains Mono', 'SF Mono', ui-monospace, Menlo, Consolas, monospace; }
  </style>

  <!-- Background -->
  <rect width="880" height="460" rx="8" fill="#0a0d12" />

  <!-- Title -->
  <text
    x="440"
    y="32"
    text-anchor="middle"
    fill="#6b7689"
    font-size="10.5"
    letter-spacing="2px"
  >CODE-INTELLIGENCE FOR AI AGENTS · 6 REPOS · CLAUDE CODE OPUS 4.7</text>

  <!-- Panel -->
  <rect
    x="20"
    y="52"
    width="840"
    height="372"
    rx="6"
    fill="#0d1118"
    stroke="#1b2230"
    stroke-width="1"
  />

  <!-- Subtitle -->
  <text x="40" y="80" fill="#e6ecf5" font-size="13" font-weight="600">Aggregate leaderboard</text>
  <text
    x="820"
    y="80"
    text-anchor="end"
    fill="#454e5f"
    font-size="10"
    letter-spacing="1.2px"
  >FAIRNESS = QUALITY · GROUNDING · EFFICIENCY · KEYWORD</text>
  <line x1="40" y1="94" x2="840" y2="94" stroke="#1b2230" stroke-width="1" />

  <!-- Column headers -->
  <text x="40" y="116" fill="#454e5f" font-size="9" letter-spacing="1.2px">RANK</text>
  <text x="100" y="116" fill="#454e5f" font-size="9" letter-spacing="1.2px">TOOL</text>
  <text x="200" y="116" fill="#454e5f" font-size="9" letter-spacing="1.2px">FAIRNESS</text>
  <text
    x="588"
    y="116"
    text-anchor="end"
    fill="#454e5f"
    font-size="9"
    letter-spacing="1.2px"
  >QUALITY</text>
  <text
    x="680"
    y="116"
    text-anchor="end"
    fill="#454e5f"
    font-size="9"
    letter-spacing="1.2px"
  >TOKENS</text>
  <text
    x="752"
    y="116"
    text-anchor="end"
    fill="#454e5f"
    font-size="9"
    letter-spacing="1.2px"
  >TIME</text>
  <text
    x="820"
    y="116"
    text-anchor="end"
    fill="#454e5f"
    font-size="9"
    letter-spacing="1.2px"
  >COST</text>

  <!-- ───────── Row 1: sense (highlighted) ───────── -->
  <text x="40" y="156" fill="#5aade0" font-size="14" font-weight="600">#1</text>
  <text x="100" y="156" fill="#5aade0" font-size="14" font-weight="600">sense</text>
  <!-- Bar background -->
  <rect x="200" y="144" width="280" height="14" rx="2" fill="#141a24" />
  <!-- Bar fill: 81.3% of 280 = 228 -->
  <rect x="200" y="144" width="228" height="14" rx="2" fill="#5aade0" />
  <text x="490" y="156" fill="#5aade0" font-size="13" font-weight="600">81.3%</text>
  <text x="588" y="156" text-anchor="end" fill="#e6ecf5" font-size="12">85.4%</text>
  <text x="680" y="156" text-anchor="end" fill="#e6ecf5" font-size="12">10,896</text>
  <text x="752" y="156" text-anchor="end" fill="#e6ecf5" font-size="12">141s</text>
  <text x="820" y="156" text-anchor="end" fill="#e6ecf5" font-size="12">$6.22</text>

  <!-- ───────── Row 2: probe ───────── -->
  <text x="40" y="206" fill="#6b7689" font-size="14">#2</text>
  <text x="100" y="206" fill="#e6ecf5" font-size="14">probe</text>
  <rect x="200" y="194" width="280" height="14" rx="2" fill="#141a24" />
  <!-- 77.7% of 280 = 218 -->
  <rect x="200" y="194" width="218" height="14" rx="2" fill="#3a4a5e" />
  <text x="490" y="206" fill="#9aa6b8" font-size="13">77.7%</text>
  <text x="588" y="206" text-anchor="end" fill="#9aa6b8" font-size="12">84.8%</text>
  <text x="680" y="206" text-anchor="end" fill="#9aa6b8" font-size="12">12,119</text>
  <text x="752" y="206" text-anchor="end" fill="#9aa6b8" font-size="12">162s</text>
  <text x="820" y="206" text-anchor="end" fill="#9aa6b8" font-size="12">$6.23</text>

  <!-- ───────── Row 3: baseline ───────── -->
  <text x="40" y="256" fill="#6b7689" font-size="14">#3</text>
  <text x="100" y="256" fill="#e6ecf5" font-size="14">baseline</text>
  <rect x="200" y="244" width="280" height="14" rx="2" fill="#141a24" />
  <!-- 77.2% of 280 = 216 -->
  <rect x="200" y="244" width="216" height="14" rx="2" fill="#3a4a5e" />
  <text x="490" y="256" fill="#9aa6b8" font-size="13">77.2%</text>
  <text x="588" y="256" text-anchor="end" fill="#9aa6b8" font-size="12">84.2%</text>
  <text x="680" y="256" text-anchor="end" fill="#9aa6b8" font-size="12">12,716</text>
  <text x="752" y="256" text-anchor="end" fill="#9aa6b8" font-size="12">185s</text>
  <text x="820" y="256" text-anchor="end" fill="#9aa6b8" font-size="12">$7.57</text>

  <!-- ───────── Row 4: serena ───────── -->
  <text x="40" y="306" fill="#6b7689" font-size="14">#4</text>
  <text x="100" y="306" fill="#e6ecf5" font-size="14">serena</text>
  <rect x="200" y="294" width="280" height="14" rx="2" fill="#141a24" />
  <!-- 75.2% of 280 = 211 -->
  <rect x="200" y="294" width="211" height="14" rx="2" fill="#3a4a5e" />
  <text x="490" y="306" fill="#9aa6b8" font-size="13">75.2%</text>
  <text x="588" y="306" text-anchor="end" fill="#9aa6b8" font-size="12">83.4%</text>
  <text x="680" y="306" text-anchor="end" fill="#9aa6b8" font-size="12">14,800</text>
  <text x="752" y="306" text-anchor="end" fill="#9aa6b8" font-size="12">191s</text>
  <text x="820" y="306" text-anchor="end" fill="#9aa6b8" font-size="12">$7.57</text>

  <!-- ───────── Row 5: gitnexus ───────── -->
  <text x="40" y="356" fill="#6b7689" font-size="14">#5</text>
  <text x="100" y="356" fill="#e6ecf5" font-size="14">gitnexus</text>
  <rect x="200" y="344" width="280" height="14" rx="2" fill="#141a24" />
  <!-- 74.9% of 280 = 210 -->
  <rect x="200" y="344" width="210" height="14" rx="2" fill="#3a4a5e" />
  <text x="490" y="356" fill="#9aa6b8" font-size="13">74.9%</text>
  <text x="588" y="356" text-anchor="end" fill="#9aa6b8" font-size="12">84.5%</text>
  <text x="680" y="356" text-anchor="end" fill="#9aa6b8" font-size="12">12,964</text>
  <text x="752" y="356" text-anchor="end" fill="#9aa6b8" font-size="12">173s</text>
  <text x="820" y="356" text-anchor="end" fill="#9aa6b8" font-size="12">$6.87</text>

  <!-- Bottom divider + summary -->
  <line x1="40" y1="384" x2="840" y2="384" stroke="#1b2230" stroke-width="1" />
  <text
    x="40"
    y="408"
    fill="#6b7689"
    font-size="11"
  >Sense wins all 6 scenarios on fairness — cheapest, fastest, best-grounded.</text>
  <text
    x="820"
    y="408"
    text-anchor="end"
    fill="#454e5f"
    font-size="10"
  >89.2% grounding · 17.8% savings vs baseline</text>

  <!-- Footer outside panel -->
  <text
    x="440"
    y="448"
    text-anchor="middle"
    fill="#454e5f"
    font-size="9"
    letter-spacing="1.2px"
  >github.com/luuuc/sense  ·  bench/results/report-for-humans.md</text>
</svg>
